<svg width="48" height="48" viewBox="0 0 48 48" fill="none" xmlns="http://www.w3.org/2000/svg">
<g filter="url(#filter0_d_249_1611)">
<path d="M4 6C4 2.68629 6.68629 0 10 0H38C41.3137 0 44 2.68629 44 6V34C44 37.3137 41.3137 40 38 40H10C6.68629 40 4 37.3137 4 34V6Z" fill="#EBF0FF"/>
<path d="M24.8923 19.1071C24.8923 18.3967 25.1745 17.7154 25.6768 17.2131C26.1792 16.7108 26.8605 16.4286 27.5709 16.4286H30.2494C30.4862 16.4286 30.7133 16.5226 30.8808 16.6901C31.0482 16.8575 31.1423 17.0846 31.1423 17.3214C31.1423 17.5582 31.0482 17.7853 30.8808 17.9528C30.7133 18.1202 30.4862 18.2143 30.2494 18.2143H27.5709C27.3341 18.2143 27.107 18.3084 26.9395 18.4758C26.7721 18.6432 26.678 18.8703 26.678 19.1071V20C26.678 20.2368 26.7721 20.4639 26.9395 20.6313C27.107 20.7988 27.3341 20.8929 27.5709 20.8929H28.4637C29.1741 20.8929 29.8554 21.1751 30.3578 21.6774C30.8601 22.1797 31.1423 22.861 31.1423 23.5714V24.4643C31.1423 25.1747 30.8601 25.856 30.3578 26.3583C29.8554 26.8607 29.1741 27.1429 28.4637 27.1429H25.7852C25.5484 27.1429 25.3213 27.0488 25.1538 26.8813C24.9864 26.7139 24.8923 26.4868 24.8923 26.25C24.8923 26.0132 24.9864 25.7861 25.1538 25.6187C25.3213 25.4512 25.5484 25.3571 25.7852 25.3571H28.4637C28.7005 25.3571 28.9276 25.2631 29.0951 25.0956C29.2625 24.9282 29.3566 24.7011 29.3566 24.4643V23.5714C29.3566 23.3346 29.2625 23.1075 29.0951 22.9401C28.9276 22.7726 28.7005 22.6786 28.4637 22.6786H27.5709C26.8605 22.6786 26.1792 22.3964 25.6768 21.894C25.1745 21.3917 24.8923 20.7104 24.8923 20V19.1071ZM23.9994 17.3214C23.9994 17.0846 23.9054 16.8575 23.7379 16.6901C23.5705 16.5226 23.3434 16.4286 23.1066 16.4286C22.8698 16.4286 22.6427 16.5226 22.4752 16.6901C22.3078 16.8575 22.2137 17.0846 22.2137 17.3214V24.4643C22.2137 24.7011 22.1197 24.9282 21.9522 25.0956C21.7848 25.2631 21.5577 25.3571 21.3209 25.3571H19.5352C19.2984 25.3571 19.0713 25.4512 18.9038 25.6187C18.7364 25.7861 18.6423 26.0132 18.6423 26.25C18.6423 26.4868 18.7364 26.7139 18.9038 26.8813C19.0713 27.0488 19.2984 27.1429 19.5352 27.1429H21.3209C22.0313 27.1429 22.7126 26.8607 23.2149 26.3583C23.7172 25.856 23.9994 25.1747 23.9994 24.4643V17.3214ZM13.2852 13.75C13.2852 12.566 13.7555 11.4305 14.5927 10.5933C15.4299 9.75606 16.5654 9.28572 17.7494 9.28572H30.2494C31.4334 9.28572 32.569 9.75606 33.4062 10.5933C34.2434 11.4305 34.7137 12.566 34.7137 13.75V26.25C34.7137 27.434 34.2434 28.5695 33.4062 29.4067C32.569 30.2439 31.4334 30.7143 30.2494 30.7143H17.7494C16.5654 30.7143 15.4299 30.2439 14.5927 29.4067C13.7555 28.5695 13.2852 27.434 13.2852 26.25V13.75ZM17.7494 11.0714C17.039 11.0714 16.3577 11.3536 15.8554 11.856C15.3531 12.3583 15.0709 13.0396 15.0709 13.75V26.25C15.0709 26.9604 15.3531 27.6417 15.8554 28.144C16.3577 28.6464 17.039 28.9286 17.7494 28.9286H30.2494C30.9598 28.9286 31.6411 28.6464 32.1435 28.144C32.6458 27.6417 32.928 26.9604 32.928 26.25V13.75C32.928 13.0396 32.6458 12.3583 32.1435 11.856C31.6411 11.3536 30.9598 11.0714 30.2494 11.0714H17.7494Z" fill="#306AFF"/>
</g>
<defs>
<filter id="filter0_d_249_1611" x="0" y="0" width="48" height="48" filterUnits="userSpaceOnUse" color-interpolation-filters="sRGB">
<feFlood flood-opacity="0" result="BackgroundImageFix"/>
<feColorMatrix in="SourceAlpha" type="matrix" values="0 0 0 0 0 0 0 0 0 0 0 0 0 0 0 0 0 0 127 0" result="hardAlpha"/>
<feOffset dy="4"/>
<feGaussianBlur stdDeviation="2"/>
<feComposite in2="hardAlpha" operator="out"/>
<feColorMatrix type="matrix" values="0 0 0 0 0 0 0 0 0 0 0 0 0 0 0 0 0 0 0.25 0"/>
<feBlend mode="normal" in2="BackgroundImageFix" result="effect1_dropShadow_249_1611"/>
<feBlend mode="normal" in="SourceGraphic" in2="effect1_dropShadow_249_1611" result="shape"/>
</filter>
</defs>
</svg>
